PathFileType	4	(X/Y/Z)	Run_200 02
DataRate	CameraRate	NumFrames	NumMarkers	Units	OrigDataRate	OrigDataStartFrame	OrigNumFrames
100	100	7	42	mm	100	49	128
Frame#	Time	LASI			RASI			LPSI			RPSI			RTH1			RTH2			RTH3			LTH1			LTH2			LTH3			RTB1			RTB2			RTB3			LTB1			LTB2			LTB3			RCAL			RTOE			RMT5			LCAL			LTOE			LMT5			LACR			RACR			CLAV			C7			RUA1			RUA2			RUA3			RLEL			RMEL			LUA1			LUA2			LUA3			LLEL			LMEL			RFAsuperior			RFAradius			RFAulna			LFAsuperior			LFAradius			LFAulna			
		X1	Y1	Z1	X2	Y2	Z2	X3	Y3	Z3	X4	Y4	Z4	X5	Y5	Z5	X6	Y6	Z6	X7	Y7	Z7	X8	Y8	Z8	X9	Y9	Z9	X10	Y10	Z10	X11	Y11	Z11	X12	Y12	Z12	X13	Y13	Z13	X14	Y14	Z14	X15	Y15	Z15	X16	Y16	Z16	X17	Y17	Z17	X18	Y18	Z18	X19	Y19	Z19	X20	Y20	Z20	X21	Y21	Z21	X22	Y22	Z22	X23	Y23	Z23	X24	Y24	Z24	X25	Y25	Z25	X26	Y26	Z26	X27	Y27	Z27	X28	Y28	Z28	X29	Y29	Z29	X30	Y30	Z30	X31	Y31	Z31	X32	Y32	Z32	X33	Y33	Z33	X34	Y34	Z34	X35	Y35	Z35	X36	Y36	Z36	X37	Y37	Z37	X38	Y38	Z38	X39	Y39	Z39	X40	Y40	Z40	X41	Y41	Z41	X42	Y42	Z42	

46	1.59	921.038902	978.713583	-423.735683	926.089849	970.0268569999999	-182.444177	756.668236	1010.220409	-345.573301	756.168996	1004.124121	-247.795528	868.162678	727.189764	-121.875657	926.880662	643.711986	-129.995054	863.969967	553.273478	-140.284274	924.8578209999999	783.264234	-464.828539	1002.529866	701.412704	-437.857919	974.214616	579.95644	-416.712792	780.487726	369.26358	-194.807057	695.566497	363.33961	-148.008195	610.011081	289.804055	-204.303778	1015.0287	388.880115	-329.104792	955.122175	311.090855	-389.378283	954.532141	206.143581	-307.876075	490.577222	337.661317	-224.509051	524.477378	119.565452	-241.190673	476.388315	151.496159	-145.253321	825.502865	104.836026	-288.62809	1044.1667	68.623896	-289.761763	994.53453	51.236846	-388.715028	900.467114	1453.459115	-459.793299	922.6785190000001	1448.273158	-159.185205	996.331181	1373.186732	-297.972885	871.156658	1483.632949	-304.773705	880.44962	1347.219469	-57.156684	805.221342	1294.68112	-62.349373	843.802891	1240.025995	-1.079101	815.8132859999999	1180.885584	34.422228	777.157367	1153.094392	-27.301561	809.702032	1359.617997	-539.570882	754.173935	1313.974637	-489.729176	763.106218	1273.392974	-568.585281	715.5061920000001	1201.468408	-588.884314	695.413806	1181.795619	-520.281928	924.494238	1148.008238	6.89802	1019.526577	1124.13095	-91.480513	1003.608896	1063.16553	-60.583362	830.249362	1174.174862	-573.787859	935.426698	1120.94025	-490.342046	916.468777	1075.60686	-538.153048	
47	1.6	920.349261	977.056457	-423.78824	924.184347	966.276431	-182.154146	755.786656	1008.34492	-345.646003	754.95389	1000.939004	-248.006762	874.3403	724.032446	-121.884179	937.5974650000001	642.73853	-130.30344	878.988174	550.278197	-140.125616	923.182898	780.865256	-465.170399	997.5786440000001	695.732253	-439.225331	966.054802	575.397575	-416.678451	797.552238	368.401321	-195.162949	713.0230319999999	363.420583	-147.519071	625.843261	291.742038	-203.407295	1004.611371	382.105781	-330.529019	941.302059	307.082968	-388.679767	937.934367	202.666349	-307.106941	504.460214	340.2442	-223.453017	541.728834	122.348684	-236.852961	495.862811	155.534113	-140.173531	805.669656	104.781853	-288.18758	1024.142401	68.018682	-289.81264	974.3856970000001	51.356852	-388.716397	900.478565	1449.335639	-459.580894	921.9784	1444.328438	-158.311418	995.454051	1369.064228	-296.803726	870.380674	1480.61633	-303.877113	877.375972	1343.371852	-57.249691	800.9847140000001	1291.717675	-65.184163	837.041498	1236.629886	-2.776864	807.179531	1177.95526	32.229972	769.3515599999999	1150.937736	-30.122048	813.389672	1351.422698	-539.724664	756.491159	1304.270472	-493.716715	770.631498	1264.51407	-572.161955	726.046516	1191.750965	-594.75098	703.622632	1171.03106	-527.034149	915.308682	1141.252663	7.172163	1011.793635	1112.854116	-88.46223999999999	992.9700319999999	1052.72788	-56.615752	841.087214	1166.363338	-574.428134	943.354005	1111.884927	-488.30592	927.666286	1067.824399	-539.079344	
48	1.61	919.831236	975.166726	-423.231505	922.520209	963.594348	-181.634099	755.140898	1007.398192	-346.773932	753.659566	999.115961	-248.905171	880.308181	721.709042	-121.981536	947.842885	642.878074	-130.516987	894.060256	548.234188	-140.305285	920.249677	778.07454	-465.601152	991.743472	687.9603059999999	-440.17391	956.556786	570.680568	-416.583399	815.337817	368.352392	-196.228564	731.511019	363.204499	-147.359667	643.1773909999999	292.94627	-202.80973	992.818035	376.654554	-330.736294	927.3317050000001	303.924154	-388.220331	920.781088	200.025957	-306.549092	519.686941	341.134626	-222.249521	561.572779	123.926325	-233.030704	517.258424	157.851407	-135.668631	785.672973	104.898387	-288.005022	1004.056727	67.67117	-289.888254	954.199979	51.58376	-388.85685	901.1189910000001	1445.680882	-459.530486	921.521571	1441.091522	-157.612399	994.865769	1365.302707	-295.859701	868.708211	1477.790241	-302.446773	873.897609	1340.337844	-57.388062	796.789246	1289.918879	-68.034308	830.5028620000001	1234.244851	-4.724818	798.755429	1175.868772	29.665136	761.4015900000001	1149.734248	-33.232686	816.8650239999999	1344.35271	-538.823008	759.048183	1294.932642	-497.268036	778.875945	1256.640402	-575.545525	737.554729	1182.918504	-600.353037	713.235698	1161.198056	-533.7180980000001	906.0868809999999	1135.334085	6.774048	1003.60078	1101.80557	-85.78314	981.628168	1042.546694	-53.08142	852.4222580000001	1159.674036	-574.68731	952.169655	1103.625682	-485.889582	939.83108	1061.740704	-539.874099	
49	1.62	919.2429990000001	973.02513	-422.529634	921.147048	961.9380609999999	-181.116759	754.469742	1006.881864	-348.428239	752.29625	998.250312	-250.009849	885.910803	720.443489	-122.300662	957.315911	644.292241	-130.760247	908.665981	547.595646	-140.920181	915.768148	775.0194760000001	-466.052236	985.492239	680.6741950000001	-440.706364	947.411385	566.459995	-416.710695	833.577363	369.168672	-197.60528	750.514529	363.056564	-147.425721	661.743548	293.478656	-202.427159	980.228152	372.863137	-330.149775	913.300375	301.733035	-388.1006	903.3579089999999	198.270154	-306.481755	535.727948	340.217724	-221.06877	584.0823799999999	124.305107	-229.808889	540.6347	158.400208	-131.797976	765.615646	105.22522	-288.261541	984.021192	67.44677900000001	-290.056125	934.086138	51.695457	-389.176281	902.292786	1442.704062	-459.772043	920.937306	1438.841972	-157.027803	994.448891	1362.540354	-295.123381	867.452105	1475.778694	-301.447815	869.888917	1338.186055	-57.55955	792.391272	1289.125526	-70.744767	824.071895	1232.683989	-6.876679	790.6001639999999	1174.805301	26.83133	753.380005	1149.626335	-36.580309	820.408486	1338.573597	-537.6199800000001	762.237357	1286.395002	-500.595431	787.531523	1249.966805	-578.655492	749.5496910000001	1175.24346	-605.46251	723.721514	1152.609141	-540.072241	896.903655	1130.375851	5.949308	995.124785	1091.394288	-83.4363	969.5431139999999	1033.222646	-50.11351	863.836932	1154.050487	-575.182277	961.836291	1097.376104	-483.527478	952.643244	1057.820097	-540.1009319999999	
50	1.63	918.459158	970.948067	-422.004052	919.789657	961.13479	-180.809429	753.686449	1006.601033	-350.094359	750.928992	998.120228	-251.139358	891.138142	720.348431	-122.888137	966.0458609999999	647.025337	-131.157292	922.439248	548.71687	-141.923975	910.175697	772.371806	-466.502926	978.620468	675.8226969999999	-441.299422	938.831868	563.270132	-417.224977	852.026539	370.77539	-198.907411	769.590626	363.281661	-147.647709	681.226305	293.327479	-202.220133	967.174242	370.109338	-330.048181	898.923747	300.128885	-388.237172	885.784502	197.043977	-306.771754	552.174111	337.372951	-220.025226	609.142505	123.531136	-227.372037	566.137598	157.220908	-128.602473	745.611194	105.726584	-288.813392	964.067601	67.22678999999999	-290.277621	914.090519	51.642288	-389.543663	903.7701960000001	1440.637101	-460.092538	920.054214	1437.62876	-156.476703	994.066617	1361.066914	-294.446843	867.517416	1475.026277	-301.647388	865.582587	1337.06358	-57.792794	787.736351	1289.30188	-73.23360599999999	817.628471	1231.836565	-9.126555	782.536959	1174.813621	23.882853	745.364437	1150.68225	-40.099111	824.563347	1334.247693	-537.122992	766.589927	1279.391429	-503.846995	796.3322010000001	1244.786713	-581.4085679999999	761.593587	1168.991261	-609.930329	734.193302	1145.544795	-545.6409650000001	887.570682	1126.374991	5.035728	986.391332	1082.073113	-81.440725	956.701223	1025.433445	-47.733589	875.24065	1149.765781	-576.091559	972.14712	1094.228492	-481.587953	965.744584	1056.192396	-539.495691	
51	1.64	917.410487	969.472406	-421.823462	918.157204	961.116441	-180.860871	752.783648	1006.678209	-351.423935	749.536511	998.648182	-252.254199	896.094281	721.4155	-123.654241	974.188317	651.009828	-131.744439	935.238484	551.569738	-143.154384	904.333524	770.7688429999999	-466.898325	971.140364	673.746081	-442.048708	930.141479	561.288543	-418.057796	870.4623319999999	373.063166	-199.962573	788.485086	363.971378	-148.014751	701.334968	292.442101	-202.202528	953.545695	367.687153	-331.052206	883.905792	298.765697	-388.483196	867.968344	196.04511	-307.078346	568.814673	332.541627	-219.108328	636.535005	121.755665	-225.830161	593.7553789999999	154.44943	-126.190925	725.658966	106.309099	-289.408874	944.119404	66.98983200000001	-290.489888	894.132862	51.500931	-389.865841	905.352028	1439.627234	-460.188604	918.9015439999999	1437.340484	-155.88328	993.686889	1360.701283	-293.641574	868.5174960000001	1475.34835	-302.856777	861.2632599999999	1337.025959	-58.074787	782.979961	1290.545962	-75.522133	811.083502	1231.75775	-11.332424	774.277237	1175.812753	20.957398	737.406605	1152.917571	-43.734664	829.805892	1331.49579	-537.953042	772.352046	1274.53347	-507.005503	805.141455	1241.311185	-583.774054	773.422629	1164.410981	-613.691244	744.164384	1140.200028	-550.089658	877.776206	1123.296539	4.230793	977.229304	1074.323086	-79.887073	943.329874	1019.618619	-46.042833	886.608741	1147.375017	-577.001613	982.722713	1094.464051	-480.034144	978.8018070000001	1056.734473	-538.020032	
52	1.65	916.0796790000001	969.028787	-422.048788	916.314603	961.946738	-181.285732	751.701717	1007.307332	-352.174539	748.102564	999.745951	-253.141586	900.887164	723.583246	-124.404679	981.848605	656.1264629999999	-132.475487	947.099467	555.8199949999999	-144.40602	898.9368480000001	770.262411	-467.090752	963.585049	673.304831	-442.461809	920.645069	560.218443	-418.949087	888.677594	375.947304	-200.772909	807.080108	364.98474	-148.544388	721.881545	290.781768	-202.426566	939.010408	365.321367	-332.649939	868.041556	297.585548	-388.766143	849.77019	195.21043	-307.226956	585.691058	325.713253	-218.293433	665.988651	119.197618	-225.149116	623.234835	150.282947	-124.66706	705.6656410000001	106.870411	-289.92712	924.096289	66.818382	-290.713895	874.09255	51.354272	-390.187819	906.948712	1439.713834	-459.901582	917.587382	1437.828114	-155.20898	993.371353	1361.119762	-292.608893	869.2856860000001	1476.147084	-304.030581	857.030919	1337.963958	-58.335981	778.31769	1292.948662	-77.702977	804.377348	1232.637131	-13.387998	765.65633	1177.707048	18.11186	729.497497	1156.320079	-47.459632	836.19631	1330.345449	-539.92618	779.212722	1271.986167	-510.032498	813.910211	1239.512825	-585.765992	784.916998	1161.637046	-616.772771	753.855054	1136.607333	-553.5283930000001	867.391002	1121.192636	3.51186	967.493341	1068.590899	-78.83063	929.8661	1015.828798	-45.335347	897.728704	1147.284419	-577.376133	993.083547	1097.471403	-478.37443	991.517027	1059.239724	-535.765202	
